HIERARCHY
ROOT newVegas:Hips
{
	OFFSET 0.000000 96.479958 0.000000
	CHANNELS 6 Xposition Yposition Zposition Xrotation Yrotation Zrotation
	JOINT newVegas:Pelvis
	{
		OFFSET 0.000000 0.000000 0.000000
		CHANNELS 3 Xrotation Yrotation Zrotation
		JOINT newVegas:LeftUpLeg
		{
			OFFSET 18.735201 -5.666702 -4.541200
			CHANNELS 3 Xrotation Yrotation Zrotation
			JOINT newVegas:LeftLeg
			{
				OFFSET -0.021200 -31.938179 0.493100
				CHANNELS 3 Xrotation Yrotation Zrotation
				JOINT newVegas:LeftFoot
				{
					OFFSET 0.021200 -31.938179 -4.336299
					CHANNELS 3 Xrotation Yrotation Zrotation
					JOINT newVegas:LeftToeBase
					{
						OFFSET 0.943001 -26.722000 15.023500
						CHANNELS 3 Xrotation Yrotation Zrotation
						End Site
						{
							OFFSET 0.000000 30.670183 0.000000
						}
					}
				}
				JOINT newVegas:Left_PantLeg
				{
					OFFSET 0.663870 -9.044666 -1.108900
					CHANNELS 3 Xrotation Yrotation Zrotation
					End Site
					{
						OFFSET 1.415995 20.635357 0.000000
					}
				}
			}
		}
		JOINT newVegas:RightUpLeg
		{
			OFFSET -18.735201 -5.666702 -4.541200
			CHANNELS 3 Xrotation Yrotation Zrotation
			JOINT newVegas:RightLeg
			{
				OFFSET 0.018946 -31.938133 0.493100
				CHANNELS 3 Xrotation Yrotation Zrotation
				JOINT newVegas:RightFoot
				{
					OFFSET -0.018946 -31.938126 -4.336299
					CHANNELS 3 Xrotation Yrotation Zrotation
					JOINT newVegas:RightToeBase
					{
						OFFSET -0.943001 -26.722004 15.023500
						CHANNELS 3 Xrotation Yrotation Zrotation
						End Site
						{
							OFFSET 0.000000 30.670187 0.000000
						}
					}
				}
				JOINT newVegas:Right_PantLeg
				{
					OFFSET -0.661674 -9.044716 -1.108900
					CHANNELS 3 Xrotation Yrotation Zrotation
					End Site
					{
						OFFSET -1.415958 20.635269 0.000000
					}
				}
			}
		}
	}
	JOINT newVegas:Spine
	{
		OFFSET 0.000000 10.199997 -0.299500
		CHANNELS 3 Xrotation Yrotation Zrotation
		JOINT newVegas:Spine1
		{
			OFFSET 0.000000 11.900002 -1.516600
			CHANNELS 3 Xrotation Yrotation Zrotation
			JOINT newVegas:Spine2
			{
				OFFSET 0.000000 13.600006 -2.842500
				CHANNELS 3 Xrotation Yrotation Zrotation
				JOINT newVegas:Neck
				{
					OFFSET 0.000000 9.624100 -2.890100
					CHANNELS 3 Xrotation Yrotation Zrotation
					JOINT newVegas:Head
					{
						OFFSET 0.000000 14.068802 -1.351900
						CHANNELS 3 Xrotation Yrotation Zrotation
						JOINT newVegas:Hair_Back
						{
							OFFSET 0.000000 3.231903 -17.524799
							CHANNELS 3 Xrotation Yrotation Zrotation
							End Site
							{
								OFFSET 0.000000 19.849884 0.000000
							}
						}
						JOINT newVegas:Hair_Front
						{
							OFFSET 0.000000 31.260406 4.573800
							CHANNELS 3 Xrotation Yrotation Zrotation
							JOINT newVegas:Hair_Front1
							{
								OFFSET 0.000000 2.284103 11.993300
								CHANNELS 3 Xrotation Yrotation Zrotation
								JOINT newVegas:Hair_Front2
								{
									OFFSET 0.000000 2.284103 11.993300
									CHANNELS 3 Xrotation Yrotation Zrotation
									End Site
									{
										OFFSET 0.000000 12.208862 0.000000
									}
								}
							}
						}
						JOINT newVegas:Jowel
						{
							OFFSET 0.000000 -7.458206 6.864100
							CHANNELS 3 Xrotation Yrotation Zrotation
							End Site
							{
								OFFSET 0.000000 19.849884 0.000000
							}
						}
					}
				}
				JOINT newVegas:LeftShoulder
				{
					OFFSET 15.263000 10.923401 -0.547700
					CHANNELS 3 Xrotation Yrotation Zrotation
					JOINT newVegas:LeftArm
					{
						OFFSET 25.438599 -2.830597 -13.032500
						CHANNELS 3 Xrotation Yrotation Zrotation
						JOINT newVegas:LeftForeArm
						{
							OFFSET 29.960503 0.000000 0.000000
							CHANNELS 3 Xrotation Yrotation Zrotation
							JOINT newVegas:LeftHand
							{
								OFFSET 27.849251 0.000000 0.000000
								CHANNELS 3 Xrotation Yrotation Zrotation
								JOINT newVegas:LeftHandThumb1
								{
									OFFSET 4.487587 -3.305161 6.305391
									CHANNELS 3 Xrotation Yrotation Zrotation
									JOINT newVegas:LeftHandThumb2
									{
										OFFSET 5.480453 -3.164139 3.164143
										CHANNELS 3 Xrotation Yrotation Zrotation
										JOINT newVegas:LeftHandThumb3
										{
											OFFSET 5.159721 -2.978973 2.978967
											CHANNELS 3 Xrotation Yrotation Zrotation
											End Site
											{
												OFFSET 2.494507 5.926697 1.738678
											}
										}
									}
								}
								JOINT newVegas:LeftHandIndex1
								{
									OFFSET 18.578728 -0.527832 5.208049
									CHANNELS 3 Xrotation Yrotation Zrotation
									JOINT newVegas:LeftHandIndex2
									{
										OFFSET 3.192009 0.000000 0.000000
										CHANNELS 3 Xrotation Yrotation Zrotation
										JOINT newVegas:LeftHandIndex3
										{
											OFFSET 3.835129 0.000000 0.000000
											CHANNELS 3 Xrotation Yrotation Zrotation
											End Site
											{
												OFFSET -0.034599 3.816971 0.371180
											}
										}
									}
								}
								JOINT newVegas:LeftHandMiddle1
								{
									OFFSET 18.476105 0.000000 0.000000
									CHANNELS 3 Xrotation Yrotation Zrotation
									JOINT newVegas:LeftHandMiddle2
									{
										OFFSET 3.324875 0.000000 0.000000
										CHANNELS 3 Xrotation Yrotation Zrotation
										JOINT newVegas:LeftHandMiddle3
										{
											OFFSET 4.596550 0.000000 0.000000
											CHANNELS 3 Xrotation Yrotation Zrotation
											End Site
											{
												OFFSET 0.057701 4.578827 0.399218
											}
										}
									}
								}
								JOINT newVegas:LeftHandRing1
								{
									OFFSET 17.732719 0.121887 -4.201567
									CHANNELS 3 Xrotation Yrotation Zrotation
									JOINT newVegas:LeftHandRing2
									{
										OFFSET 2.733170 0.000000 0.000000
										CHANNELS 3 Xrotation Yrotation Zrotation
										JOINT newVegas:LeftHandRing3
										{
											OFFSET 3.178268 0.000000 0.000000
											CHANNELS 3 Xrotation Yrotation Zrotation
											End Site
											{
												OFFSET 0.119102 3.170624 0.185394
											}
										}
									}
								}
								JOINT newVegas:LeftHandPinky1
								{
									OFFSET 15.989624 -0.606689 -7.535461
									CHANNELS 3 Xrotation Yrotation Zrotation
									JOINT newVegas:LeftHandPinky2
									{
										OFFSET 2.538986 0.000000 0.000000
										CHANNELS 3 Xrotation Yrotation Zrotation
										JOINT newVegas:LeftHandPinky3
										{
											OFFSET 2.593102 0.000000 0.000000
											CHANNELS 3 Xrotation Yrotation Zrotation
											End Site
											{
												OFFSET -0.150902 2.584198 0.152708
											}
										}
									}
								}
							}
							JOINT newVegas:Left_Sleeve
							{
								OFFSET 0.267448 -0.649796 0.577675
								CHANNELS 3 Xrotation Yrotation Zrotation
								End Site
								{
									OFFSET 0.000000 15.991241 0.000000
								}
							}
							JOINT newVegas:Left_CapeC
							{
								OFFSET 15.715958 -8.608795 -6.935905
								CHANNELS 3 Xrotation Yrotation Zrotation
								JOINT newVegas:Left_CapeC1
								{
									OFFSET 0.000000 -8.688499 0.000000
									CHANNELS 3 Xrotation Yrotation Zrotation
									End Site
									{
										OFFSET 0.000000 8.688499 0.000000
									}
								}
							}
						}
						JOINT newVegas:Left_CapeB
						{
							OFFSET 26.118385 -8.608795 -7.079235
							CHANNELS 3 Xrotation Yrotation Zrotation
							JOINT newVegas:Left_CapeB1
							{
								OFFSET 0.000000 -8.688499 0.000000
								CHANNELS 3 Xrotation Yrotation Zrotation
								End Site
								{
									OFFSET 0.000000 8.688499 0.000000
								}
							}
						}
						JOINT newVegas:Left_CapeA
						{
							OFFSET 5.115639 -8.608795 -10.395809
							CHANNELS 3 Xrotation Yrotation Zrotation
							JOINT newVegas:Left_CapeA1
							{
								OFFSET 0.000000 -8.688499 0.000000
								CHANNELS 3 Xrotation Yrotation Zrotation
								End Site
								{
									OFFSET 0.000000 8.688499 0.000000
								}
							}
						}
					}
				}
				JOINT newVegas:RightShoulder
				{
					OFFSET -15.263000 10.923401 -0.547700
					CHANNELS 3 Xrotation Yrotation Zrotation
					JOINT newVegas:RightArm
					{
						OFFSET -25.438599 -2.830597 -13.032500
						CHANNELS 3 Xrotation Yrotation Zrotation
						JOINT newVegas:RightForeArm
						{
							OFFSET -29.960503 0.000000 0.000000
							CHANNELS 3 Xrotation Yrotation Zrotation
							JOINT newVegas:RightHand
							{
								OFFSET -27.849251 0.000000 0.000000
								CHANNELS 3 Xrotation Yrotation Zrotation
								JOINT newVegas:RightHandThumb1
								{
									OFFSET -4.487587 -3.305161 6.305391
									CHANNELS 3 Xrotation Yrotation Zrotation
									JOINT newVegas:RightHandThumb2
									{
										OFFSET -5.480453 -3.164139 3.164143
										CHANNELS 3 Xrotation Yrotation Zrotation
										JOINT newVegas:RightHandThumb3
										{
											OFFSET -5.159721 -2.978973 2.978967
											CHANNELS 3 Xrotation Yrotation Zrotation
											End Site
											{
												OFFSET -2.494507 5.926697 1.738678
											}
										}
									}
								}
								JOINT newVegas:RightHandIndex1
								{
									OFFSET -18.578728 -0.527832 5.208049
									CHANNELS 3 Xrotation Yrotation Zrotation
									JOINT newVegas:RightHandIndex2
									{
										OFFSET -3.192009 0.000000 0.000000
										CHANNELS 3 Xrotation Yrotation Zrotation
										JOINT newVegas:RightHandIndex3
										{
											OFFSET -3.835129 0.000000 0.000000
											CHANNELS 3 Xrotation Yrotation Zrotation
											End Site
											{
												OFFSET 0.034599 3.816971 0.371180
											}
										}
									}
								}
								JOINT newVegas:RightHandMiddle1
								{
									OFFSET -18.476105 0.000000 0.000000
									CHANNELS 3 Xrotation Yrotation Zrotation
									JOINT newVegas:RightHandMiddle2
									{
										OFFSET -3.324875 0.000000 0.000000
										CHANNELS 3 Xrotation Yrotation Zrotation
										JOINT newVegas:RightHandMiddle3
										{
											OFFSET -4.596550 0.000000 0.000000
											CHANNELS 3 Xrotation Yrotation Zrotation
											End Site
											{
												OFFSET -0.057701 4.578827 0.399218
											}
										}
									}
								}
								JOINT newVegas:RightHandRing1
								{
									OFFSET -17.732719 0.121887 -4.201567
									CHANNELS 3 Xrotation Yrotation Zrotation
									JOINT newVegas:RightHandRing2
									{
										OFFSET -2.733170 0.000000 0.000000
										CHANNELS 3 Xrotation Yrotation Zrotation
										JOINT newVegas:RightHandRing3
										{
											OFFSET -3.178268 0.000000 0.000000
											CHANNELS 3 Xrotation Yrotation Zrotation
											End Site
											{
												OFFSET -0.119102 3.170624 0.185394
											}
										}
									}
								}
								JOINT newVegas:RightHandPinky1
								{
									OFFSET -15.989624 -0.606689 -7.535461
									CHANNELS 3 Xrotation Yrotation Zrotation
									JOINT newVegas:RightHandPinky2
									{
										OFFSET -2.538986 0.000000 0.000000
										CHANNELS 3 Xrotation Yrotation Zrotation
										JOINT newVegas:RightHandPinky3
										{
											OFFSET -2.593102 0.000000 0.000000
											CHANNELS 3 Xrotation Yrotation Zrotation
											End Site
											{
												OFFSET 0.150902 2.584198 0.152708
											}
										}
									}
								}
							}
							JOINT newVegas:Right_CapeC
							{
								OFFSET -15.715958 -8.608795 -6.935905
								CHANNELS 3 Xrotation Yrotation Zrotation
								JOINT newVegas:Right_CapeC1
								{
									OFFSET 0.000000 -8.688499 0.000000
									CHANNELS 3 Xrotation Yrotation Zrotation
									End Site
									{
										OFFSET 0.000000 8.688499 0.000000
									}
								}
							}
							JOINT newVegas:Right_Sleeve
							{
								OFFSET -0.267448 -0.649994 0.577675
								CHANNELS 3 Xrotation Yrotation Zrotation
								End Site
								{
									OFFSET 0.000000 15.991302 0.000000
								}
							}
						}
						JOINT newVegas:Right_CapeA
						{
							OFFSET -5.115540 -8.608795 -10.395824
							CHANNELS 3 Xrotation Yrotation Zrotation
							JOINT newVegas:Right_CapeA1
							{
								OFFSET 0.000000 -8.688499 0.000000
								CHANNELS 3 Xrotation Yrotation Zrotation
								End Site
								{
									OFFSET 0.000000 8.688499 0.000000
								}
							}
						}
						JOINT newVegas:Right_CapeB
						{
							OFFSET -26.118187 -8.608795 -7.079266
							CHANNELS 3 Xrotation Yrotation Zrotation
							JOINT newVegas:Right_CapeB1
							{
								OFFSET 0.000000 -8.688499 0.000000
								CHANNELS 3 Xrotation Yrotation Zrotation
								End Site
								{
									OFFSET 0.000000 8.688499 0.000000
								}
							}
						}
					}
				}
				JOINT newVegas:Left_Collar
				{
					OFFSET 18.625099 8.655502 8.828100
					CHANNELS 3 Xrotation Yrotation Zrotation
					JOINT newVegas:Left_Collar1
					{
						OFFSET 14.783401 10.540405 -1.259500
						CHANNELS 3 Xrotation Yrotation Zrotation
						End Site
						{
							OFFSET 0.000000 18.199875 0.000000
						}
					}
				}
				JOINT newVegas:Collar_Back
				{
					OFFSET 0.000000 15.630707 -20.132601
					CHANNELS 3 Xrotation Yrotation Zrotation
					End Site
					{
						OFFSET 0.000000 22.523010 0.000000
					}
				}
				JOINT newVegas:Left_Peck
				{
					OFFSET 17.239599 -5.132599 25.482599
					CHANNELS 3 Xrotation Yrotation Zrotation
					End Site
					{
						OFFSET 0.000000 22.523010 0.000000
					}
				}
				JOINT newVegas:Right_Peck
				{
					OFFSET -17.239599 -5.132202 25.482599
					CHANNELS 3 Xrotation Yrotation Zrotation
					End Site
					{
						OFFSET 0.000000 22.523010 0.000000
					}
				}
				JOINT newVegas:Right_Collar
				{
					OFFSET -18.625099 8.655792 8.828100
					CHANNELS 3 Xrotation Yrotation Zrotation
					JOINT newVegas:Right_Collar1
					{
						OFFSET -14.783401 10.539993 -1.259500
						CHANNELS 3 Xrotation Yrotation Zrotation
						End Site
						{
							OFFSET 0.000000 18.199631 0.000000
						}
					}
				}
			}
		}
		JOINT newVegas:Belly
		{
			OFFSET 0.000000 -6.540398 9.014299
			CHANNELS 3 Xrotation Yrotation Zrotation
			End Site
			{
				OFFSET 0.000000 11.566666 0.000000
			}
		}
	}
	JOINT newVegas:ElvisFacialAnim_Joint
	{
		OFFSET 1.000000 -95.330101 -8.825800
		CHANNELS 3 Xrotation Yrotation Zrotation
		End Site
		{
			OFFSET 0.000000 35.315800 0.000000
		}
	}
}
MOTION
Frames: 4
Frame Time: 0.016667
10.380910 81.879074 -7.483994 55.093569 -6.821050 4.239213 -0.000000 -0.000000 -0.000000 -92.492830 -6.676959 6.213547 55.295029 8.926554 -4.869807 -14.471521 13.956667 -3.376939 0.000000 -0.000000 0.000000 -0.000003 -0.000000 -0.000000 -69.322896 8.230546 -4.991507 64.840898 2.632892 -4.939582 6.169269 -2.762260 6.910045 -0.000001 0.000000 0.000000 0.000000 0.000000 -0.000000 6.429682 0.280908 -0.611255 15.063531 1.404744 -0.847226 25.668443 1.557015 -0.177842 -8.772161 0.106705 1.294854 -8.772147 0.106704 1.294852 -0.000000 0.000000 -0.000001 -8.772161 0.106710 1.294849 -8.772056 0.106698 1.294859 -0.000001 0.000001 -0.000001 -0.000000 0.000000 -0.000001 3.359785 -11.332868 0.850118 -25.850594 -35.679720 -27.707658 -0.000016 -43.985267 -0.000008 -8.602272 -8.370895 31.241193 0.699762 -6.020121 19.223935 19.074649 26.512438 -1.026356 0.000002 -0.000002 0.000000 0.483449 4.482272 -23.673226 0.882582 3.094048 -31.835088 -0.000004 -0.000001 0.000001 2.472064 8.725164 -25.286108 1.505515 3.921800 -41.988824 -0.000000 0.000001 -0.000002 3.074523 8.498756 -34.787632 1.107464 3.429295 -35.785939 0.000002 0.000003 -0.000001 3.603280 12.761718 -45.581285 0.673748 2.729573 -27.725823 -0.000001 -0.000003 -0.000001 0.000002 -0.000000 0.000001 0.000002 -0.000000 0.000001 0.000001 -0.000000 0.000001 0.000000 0.000002 -0.000002 0.000000 0.000001 -0.000001 0.000000 0.000002 -0.000002 0.000000 0.000002 -0.000002 0.611273 31.893637 8.610643 -33.996819 35.443754 11.882225 0.000006 24.919382 0.000003 0.648384 -4.749854 3.169650 -0.201451 3.035671 -7.196446 8.074866 6.487026 -14.042679 -0.000000 -0.000002 -0.000001 -3.681010 8.704005 18.305348 -0.000001 -0.000007 -0.000002 -0.000005 0.000001 -0.000001 -0.122575 9.697883 1.310628 0.695567 -2.450402 31.689831 -0.000001 -0.000000 0.000000 -0.568137 7.106775 4.105415 0.435111 -1.967342 24.939886 0.000004 0.000003 -0.000004 -8.414113 -1.159772 -7.809532 0.946330 -2.815983 37.143675 0.000002 0.000003 -0.000001 -0.000000 0.000000 -0.000000 -0.000000 0.000000 0.000000 -0.000000 0.000000 -0.000000 0.000000 0.000001 0.000001 0.000000 0.000002 -0.000000 0.000000 0.000001 0.000001 0.000000 0.000002 -0.000000 -0.000001 -0.000000 -0.000000 -0.000001 -0.000000 -0.000000 -0.000001 -0.000000 -0.000000 -0.000001 -0.000000 -0.000000 -0.000001 -0.000000 -0.000000 -0.000001 -0.000000 -0.000000 -0.000001 -0.000000 -0.000000 0.000001 0.000000 -0.000000 -0.000000 -0.000000 -0.000000 
10.318592 82.686600 -7.069489 53.784465 -7.309082 4.154408 -0.000003 0.000000 -0.000000 -89.684024 -6.561282 6.644350 53.643285 8.946945 -4.900960 -14.253569 14.114384 -3.309470 0.000000 -0.000001 0.000000 -0.000002 0.000000 0.000000 -70.897145 8.264922 -4.954885 65.728427 1.838451 -4.655169 4.552770 -2.787444 6.650822 -0.000004 0.000000 -0.000000 0.000001 0.000000 0.000001 6.385063 0.266865 -0.568806 14.959060 1.376008 -0.738084 25.530262 1.548437 -0.069473 -8.637792 0.147760 1.261182 -8.637786 0.147759 1.261184 -0.000000 0.000000 -0.000001 -8.637806 0.147760 1.261179 -8.637761 0.147752 1.261183 -0.000001 0.000000 -0.000000 -0.000000 0.000000 -0.000000 3.327521 -11.257730 0.298060 -24.534514 -35.097320 -28.877992 -0.000029 -43.052769 -0.000013 -8.186018 -8.336852 30.259019 0.699767 -6.020111 19.223952 19.074656 26.512452 -1.026337 0.000003 -0.000003 -0.000001 0.483159 4.482402 -23.673084 0.882598 3.094061 -31.835194 0.000001 -0.000002 0.000004 2.472267 8.725265 -25.287797 1.505388 3.921665 -41.987140 -0.000000 -0.000001 -0.000003 3.074709 8.498848 -34.789575 1.107367 3.429154 -35.783983 0.000002 -0.000001 -0.000001 3.603268 12.761735 -45.581281 0.673755 2.729579 -27.725814 -0.000000 -0.000000 0.000003 -0.000002 0.000000 0.000001 -0.000002 0.000000 0.000001 -0.000003 -0.000000 0.000001 0.000000 -0.000001 -0.000001 0.000000 -0.000002 -0.000002 0.000000 -0.000001 -0.000001 -0.000001 -0.000002 -0.000001 0.454111 31.771885 9.248695 -33.054810 34.716861 13.055007 0.000001 24.898765 -0.000012 0.795431 -4.377376 5.700447 -0.201459 3.035672 -7.196437 8.074868 6.487021 -14.042702 0.000002 -0.000001 -0.000001 -3.680994 8.703990 18.305336 0.000001 -0.000003 -0.000005 -0.000002 0.000000 0.000001 -0.122557 9.697897 1.310573 0.695577 -2.450419 31.689882 -0.000001 0.000001 0.000000 -0.568095 7.106790 4.105291 0.435124 -1.967351 24.940031 -0.000000 0.000001 0.000001 -8.414087 -1.159775 -7.809536 0.946319 -2.815993 37.143679 0.000001 -0.000000 0.000000 0.000003 0.000000 0.000000 0.000003 0.000000 0.000000 0.000003 0.000000 0.000000 -0.000002 0.000000 0.000001 -0.000002 0.000001 0.000000 -0.000002 0.000000 0.000001 -0.000002 0.000001 0.000001 -0.000001 0.000000 0.000000 -0.000001 0.000000 0.000000 -0.000001 0.000000 0.000000 -0.000001 0.000000 0.000000 -0.000001 0.000000 0.000000 -0.000001 0.000000 0.000000 -0.000001 0.000000 0.000000 0.000001 0.000000 -0.000001 -0.000003 0.000000 -0.000000 
10.253819 83.479248 -6.651237 52.446714 -7.818594 4.052104 0.000002 0.000000 0.000000 -86.857357 -6.403476 7.109425 52.009664 8.934493 -4.943331 -14.051572 14.275672 -3.229201 -0.000000 -0.000000 0.000000 -0.000001 0.000000 0.000000 -71.973897 8.051635 -5.033635 65.825320 0.488659 -4.361443 2.831384 -2.793448 6.061722 0.000000 -0.000000 0.000001 0.000001 -0.000000 0.000000 6.344623 0.257648 -0.513228 14.862679 1.352664 -0.606152 25.397855 1.548555 0.060529 -8.508647 0.186898 1.215585 -8.508649 0.186897 1.215586 0.000000 0.000000 -0.000001 -8.508615 0.186903 1.215581 -8.508622 0.186894 1.215585 -0.000001 -0.000000 0.000000 0.000000 0.000000 0.000000 3.282056 -11.154452 -0.322866 -23.304158 -34.650147 -30.083333 0.000009 -41.915935 0.000009 -7.881272 -8.386946 29.199711 0.699761 -6.020121 19.223926 19.074628 26.512458 -1.026330 -0.000001 0.000001 0.000003 0.482895 4.482498 -23.672971 0.882589 3.094068 -31.835300 0.000003 0.000000 -0.000001 2.472452 8.725376 -25.289505 1.505276 3.921537 -41.985432 -0.000001 -0.000000 -0.000003 3.074919 8.498942 -34.791495 1.107242 3.428968 -35.782043 0.000001 0.000003 -0.000005 3.603277 12.761727 -45.581274 0.673761 2.729586 -27.725809 -0.000003 -0.000003 0.000000 0.000002 0.000000 -0.000000 0.000002 0.000000 -0.000000 0.000001 0.000000 -0.000000 -0.000002 0.000001 -0.000000 -0.000002 0.000000 0.000000 -0.000002 0.000001 -0.000000 -0.000002 -0.000000 0.000001 0.383120 31.571569 9.612378 -32.161906 33.923685 14.344972 0.000008 24.743661 -0.000009 0.798862 -3.969774 7.957806 -0.201442 3.035681 -7.196442 8.074857 6.486998 -14.042701 -0.000000 -0.000000 -0.000001 -3.680979 8.703998 18.305339 -0.000002 -0.000001 0.000004 -0.000003 0.000000 0.000001 -0.122528 9.697897 1.310505 0.695559 -2.450413 31.689960 0.000000 -0.000001 0.000002 -0.568076 7.106798 4.105137 0.435111 -1.967361 24.940190 0.000001 -0.000001 -0.000004 -8.414091 -1.159760 -7.809531 0.946315 -2.815996 37.143658 -0.000000 0.000001 0.000001 -0.000001 -0.000000 -0.000000 -0.000001 -0.000000 -0.000000 -0.000001 -0.000000 -0.000000 0.000002 0.000002 -0.000000 0.000002 0.000003 0.000000 0.000002 0.000002 -0.000000 0.000002 0.000003 0.000000 0.000001 -0.000000 0.000000 0.000001 -0.000000 0.000000 0.000001 -0.000000 0.000000 0.000001 -0.000000 0.000000 0.000001 -0.000000 0.000000 0.000001 -0.000000 0.000000 0.000001 -0.000000 0.000000 -0.000002 -0.000000 -0.000000 0.000002 0.000000 0.000000 
10.183050 84.253525 -6.234032 51.122952 -8.338765 3.910186 -0.000001 0.000000 0.000000 -84.069028 -6.222934 7.610812 50.397299 8.925658 -4.989458 -13.848962 14.395944 -3.154994 -0.000000 -0.000001 -0.000000 -0.000002 0.000000 0.000000 -72.604166 7.578666 -5.164641 65.198773 -1.086673 -4.051469 1.031590 -2.772537 5.213154 -0.000001 0.000001 0.000001 0.000001 -0.000001 -0.000000 6.297423 0.255011 -0.449065 14.751827 1.342870 -0.457022 25.248575 1.564635 0.205128 -8.385819 0.221876 1.165656 -8.385814 0.221876 1.165657 -0.000001 -0.000000 0.000000 -8.385797 0.221874 1.165659 -8.385825 0.221883 1.165656 -0.000002 0.000000 0.000001 -0.000001 -0.000000 0.000000 3.231805 -11.021966 -0.952627 -22.238211 -34.231569 -31.346641 -0.000006 -40.754509 0.000006 -7.654832 -8.345729 28.070063 0.699760 -6.020113 19.223929 19.074640 26.512435 -1.026343 0.000003 -0.000002 -0.000003 0.482586 4.482612 -23.672826 0.882607 3.094085 -31.835426 0.000002 -0.000000 0.000001 2.472638 8.725463 -25.291219 1.505147 3.921388 -41.983732 -0.000002 0.000000 -0.000000 3.075112 8.499012 -34.793455 1.107120 3.428804 -35.780069 0.000003 0.000001 0.000000 3.603269 12.761722 -45.581291 0.673763 2.729571 -27.725818 0.000004 -0.000002 0.000002 -0.000000 0.000000 -0.000001 -0.000000 0.000000 -0.000001 -0.000001 0.000000 -0.000001 -0.000000 -0.000001 0.000002 -0.000000 -0.000002 0.000001 -0.000000 -0.000001 0.000002 -0.000001 -0.000001 0.000001 0.372575 31.286419 9.795021 -31.370570 33.055141 15.760117 -0.000003 24.457924 -0.000000 0.679511 -3.567369 9.936563 -0.201452 3.035667 -7.196456 8.074864 6.487000 -14.042696 0.000001 -0.000004 0.000001 -3.680990 8.704000 18.305330 -0.000002 -0.000003 -0.000006 -0.000003 0.000001 -0.000001 -0.122513 9.697894 1.310432 0.695575 -2.450421 31.690008 -0.000004 0.000002 0.000002 -0.568042 7.106804 4.104974 0.435130 -1.967383 24.940320 -0.000004 0.000001 -0.000004 -8.414087 -1.159768 -7.809546 0.946334 -2.816001 37.143668 0.000002 -0.000000 -0.000000 0.000004 0.000000 0.000000 0.000004 0.000000 0.000000 0.000004 0.000000 0.000000 -0.000002 -0.000001 -0.000001 -0.000001 0.000000 -0.000001 -0.000002 -0.000001 -0.000001 -0.000002 -0.000000 -0.000001 0.000001 0.000000 0.000000 0.000001 0.000000 0.000000 0.000001 0.000000 0.000000 0.000001 0.000000 0.000000 0.000001 0.000000 0.000000 0.000001 0.000000 0.000000 0.000001 0.000000 0.000000 -0.000001 -0.000001 0.000000 -0.000001 0.000000 0.000000 
